HIERARCHY
ROOT Hips
{
	OFFSET 0.000000 0.000000 0.000000 
	CHANNELS 6 Xposition Yposition Zposition Zrotation Xrotation Yrotation
	JOINT LeftUpLeg
	{
		OFFSET 2.390000 -0.997500 0.003131 
		CHANNELS 3 Zrotation Xrotation Yrotation
		JOINT LeftUpLegRoll
		{
			OFFSET -0.008228 -5.368025 -0.050000 
			CHANNELS 3 Zrotation Xrotation Yrotation
			JOINT LeftLeg
			{
				OFFSET 0.008228 -5.304475 -0.040000 
				CHANNELS 3 Zrotation Xrotation Yrotation
				JOINT LeftLegRoll
				{
					OFFSET 0.008266 -8.023550 -0.789272 
					CHANNELS 3 Zrotation Xrotation Yrotation
					JOINT LeftFoot
					{
						OFFSET -0.008285 -2.447005 -0.176461 
						CHANNELS 3 Zrotation Xrotation Yrotation
						End Site
						{
							OFFSET -0.006362 -1.603547 3.533050 
						}
					}
				}
			}
		}
	}
	JOINT RightUpLeg
	{
		OFFSET -2.390000 -0.997500 0.003131 
		CHANNELS 3 Zrotation Xrotation Yrotation
		JOINT RightUpLegRoll
		{
			OFFSET 0.007500 -5.367500 -0.050000 
			CHANNELS 3 Zrotation Xrotation Yrotation
			JOINT RightLeg
			{
				OFFSET -0.007500 -5.305000 -0.040000 
				CHANNELS 3 Zrotation Xrotation Yrotation
				JOINT RightLegRoll
				{
					OFFSET 0.005000 -8.024050 -0.790258 
					CHANNELS 3 Zrotation Xrotation Yrotation
					JOINT RightFoot
					{
						OFFSET 0.020000 -2.446472 -0.175476 
						CHANNELS 3 Zrotation Xrotation Yrotation
						End Site
						{
							OFFSET 0.010000 -1.603528 3.533050 
						}
					}
				}
			}
		}
	}
	JOINT Spine
	{
		OFFSET 0.000120 2.857200 0.095838 
		CHANNELS 3 Zrotation Xrotation Yrotation
		JOINT Spine1
		{
			OFFSET 0.000000 3.491675 -0.016748 
			CHANNELS 3 Zrotation Xrotation Yrotation
			JOINT Spine2
			{
				OFFSET 0.000000 2.811225 -0.017190 
				CHANNELS 3 Zrotation Xrotation Yrotation
				JOINT Spine3
				{
					OFFSET 0.000000 3.297825 -0.158152 
					CHANNELS 3 Zrotation Xrotation Yrotation
					JOINT LeftShoulder
					{
						OFFSET 2.247500 -0.945430 -0.255617 
						CHANNELS 3 Zrotation Xrotation Yrotation
						JOINT LeftArm
						{
							OFFSET 2.422500 0.192500 0.242500 
							CHANNELS 3 Zrotation Xrotation Yrotation
							JOINT LeftArmRoll
							{
								OFFSET 3.011150 -0.056125 -0.149282 
								CHANNELS 3 Zrotation Xrotation Yrotation
								JOINT LeftForeArm
								{
									OFFSET 3.544950 0.021691 -0.254337 
									CHANNELS 3 Zrotation Xrotation Yrotation
									JOINT LeftForeArmRoll
									{
										OFFSET 3.242425 0.024099 -0.017220 
										CHANNELS 3 Zrotation Xrotation Yrotation
										End Site
										{
											OFFSET 3.371325 0.031393 -0.007218 
										}
									}
								}
							}
						}
					}
					JOINT RightShoulder
					{
						OFFSET -2.247500 -0.945430 -0.255617 
						CHANNELS 3 Zrotation Xrotation Yrotation
						JOINT RightArm
						{
							OFFSET -2.422500 0.192500 0.242500 
							CHANNELS 3 Zrotation Xrotation Yrotation
							JOINT RightArmRoll
							{
								OFFSET -3.062100 -0.062702 -0.132500 
								CHANNELS 3 Zrotation Xrotation Yrotation
								JOINT RightForeArm
								{
									OFFSET -3.498150 0.035499 -0.338573 
									CHANNELS 3 Zrotation Xrotation Yrotation
									JOINT RightForeArmRoll
									{
										OFFSET -3.278950 0.026904 0.120309 
										CHANNELS 3 Zrotation Xrotation Yrotation
										End Site
										{
											OFFSET -3.349925 0.018716 0.058049 
										}
									}
								}
							}
						}
					}
					JOINT Neck
					{
						OFFSET 0.000000 1.108613 -0.101302 
						CHANNELS 3 Zrotation Xrotation Yrotation
						End Site
						{
							OFFSET 0.000000 1.617325 0.410885 
						}
					}
				}
			}
		}
	}
}
MOTION
Frames: 11
Frame Time: 0.041667
5.360125 22.387800 -3.676200 1.921780 12.194900 0.700264 -6.361170 -32.217201 -11.311100 0.000000 -0.000000 0.000000 -14.622600 38.204800 7.575750 0.000000 -0.000000 0.000000 16.239300 -7.922610 12.256600 -5.571590 -14.757300 26.875900 0.000000 0.000000 0.000000 48.716801 46.161201 -28.456100 -0.000000 0.000000 0.000000 -20.856600 35.054001 -5.022720 1.372260 0.663180 -1.027890 -0.000000 0.000000 -0.000000 0.000000 0.000000 -0.000000 0.000000 -0.000000 0.000000 -21.655500 -3.387930 -8.301710 175.313004 48.668701 137.026001 0.000000 -0.000000 0.000000 -109.321999 -55.447498 178.466003 -0.000000 0.000000 -0.000000 23.858299 1.863380 5.505690 -137.393005 47.656601 177.988007 -0.000000 0.000000 0.000000 93.172501 -59.262600 166.845001 -0.000000 0.000000 0.000000 0.000000 0.000000 0.000000 
5.301175 22.408951 -1.308035 -0.411404 10.717000 1.856940 -3.149910 -23.923800 -9.500200 0.000000 -0.000000 0.000000 -14.072000 37.417702 7.268820 0.000000 -0.000000 0.000000 14.576600 -17.656300 10.627000 -4.157440 -24.995501 24.802200 0.000000 0.000000 0.000000 55.910099 48.674198 -34.339298 -0.000000 0.000000 0.000000 -25.528200 32.657700 -6.092850 1.962160 0.935859 -0.972438 -0.000000 0.000000 -0.000000 0.000000 0.000000 -0.000000 0.000000 -0.000000 0.000000 -22.608500 -3.532590 -8.597050 163.845993 55.041000 148.382004 0.000000 -0.000000 0.000000 -109.219002 -56.890499 178.412003 -0.000000 0.000000 -0.000000 24.593000 1.931190 5.437470 -147.091995 47.429401 -171.882004 -0.000000 0.000000 0.000000 32.726700 -84.093201 96.567802 -0.000000 0.000000 0.000000 0.000000 0.000000 0.000000 
5.251800 22.776550 1.120730 -3.553250 9.667690 2.834900 -0.045962 -10.670000 -9.215660 0.000000 -0.000000 0.000000 -9.168230 25.976200 4.251760 0.000000 -0.000000 0.000000 12.523300 -17.495600 9.069040 -1.720300 -34.416302 23.137501 0.000000 0.000000 0.000000 51.855900 47.383099 -31.161600 -0.000000 0.000000 0.000000 -25.511101 27.735399 -7.780990 2.834370 1.208700 -0.842705 -0.000000 0.000000 -0.000000 0.000000 0.000000 -0.000000 0.000000 -0.000000 0.000000 -21.376900 -3.338910 -8.136050 145.417007 59.477402 163.927994 0.000000 -0.000000 0.000000 -108.668999 -44.169899 178.643005 -0.000000 0.000000 -0.000000 23.730700 1.917330 4.566120 -158.380005 44.953899 -161.567001 -0.000000 0.000000 0.000000 11.101500 -83.916901 72.203201 -0.000000 0.000000 0.000000 0.000000 0.000000 0.000000 
5.241350 23.300949 3.665825 -4.982270 9.038810 3.241810 2.226560 3.169340 -8.111520 0.000000 -0.000000 0.000000 -4.762200 12.650500 1.872770 0.000000 -0.000000 0.000000 7.628000 -8.332210 5.992340 -0.311853 -39.625099 20.268999 0.000000 0.000000 0.000000 37.423599 40.675900 -20.060499 -0.000000 0.000000 0.000000 -25.418200 25.373199 -8.819300 3.103970 1.433350 -0.919540 -0.000000 0.000000 -0.000000 0.000000 0.000000 -0.000000 0.000000 -0.000000 0.000000 -19.207399 -2.965930 -6.743570 128.229996 59.732300 178.703003 0.000000 -0.000000 0.000000 -109.665001 -21.947800 178.641998 -0.000000 0.000000 -0.000000 21.823500 1.797070 3.851950 -165.878006 41.399799 -155.315002 -0.000000 0.000000 0.000000 57.045399 -82.918602 119.538002 -0.000000 0.000000 0.000000 0.000000 0.000000 0.000000 
5.224300 23.834524 6.397975 -5.745630 8.054060 3.296610 4.298650 13.366000 -3.247160 0.000000 -0.000000 0.000000 -2.251180 3.198430 0.778423 0.000000 -0.000000 0.000000 -2.789500 -2.194380 -0.211431 0.837955 -39.249599 15.473700 0.000000 0.000000 0.000000 21.738400 28.596001 -9.285730 -0.000000 0.000000 0.000000 -22.964800 23.545200 -9.054990 2.694180 1.539020 -1.179130 -0.000000 0.000000 -0.000000 0.000000 0.000000 -0.000000 0.000000 -0.000000 0.000000 -17.694700 -2.597850 -5.111790 119.322998 57.238201 -171.977005 0.000000 -0.000000 0.000000 -111.713997 -4.779310 178.934006 -0.000000 0.000000 -0.000000 19.930901 1.644880 3.935610 -169.856003 38.876202 -151.658997 -0.000000 0.000000 0.000000 70.571701 -81.334198 133.417007 -0.000000 0.000000 0.000000 0.000000 0.000000 0.000000 
5.251475 24.094675 9.089275 -4.709970 8.526660 3.056230 4.392360 16.485201 -0.249771 0.000000 -0.000000 0.000000 -1.860890 3.940310 0.512224 0.000000 -0.000000 0.000000 -9.234840 1.807050 -2.476020 2.752110 -38.461399 12.215800 0.000000 0.000000 0.000000 7.223470 15.858800 -2.252190 -0.000000 0.000000 0.000000 -12.188800 14.703200 -7.679480 1.883110 1.279120 -1.390810 -0.000000 0.000000 -0.000000 0.000000 0.000000 -0.000000 0.000000 -0.000000 0.000000 -16.629400 -2.389360 -4.286930 114.862999 55.000801 -166.106003 0.000000 -0.000000 0.000000 -114.007004 3.682720 179.076996 -0.000000 0.000000 -0.000000 19.253500 1.560420 4.400340 -172.621994 36.947300 -149.317993 -0.000000 0.000000 0.000000 80.942703 -78.993698 143.802002 -0.000000 0.000000 0.000000 0.000000 0.000000 0.000000 
5.288675 23.954599 11.910325 -3.223930 8.153380 3.186370 3.872500 17.313000 -2.048070 0.000000 -0.000000 0.000000 -3.914130 12.657200 1.205310 0.000000 -0.000000 0.000000 -4.776710 6.742400 1.365890 1.230750 -35.336300 7.850850 0.000000 0.000000 0.000000 -0.211814 2.004940 0.000473 -0.000000 0.000000 0.000000 0.300079 3.762680 -2.282260 0.808833 0.912652 -1.607960 -0.000000 0.000000 -0.000000 0.000000 0.000000 -0.000000 0.000000 -0.000000 0.000000 -16.027100 -2.284110 -4.031620 112.934998 53.578602 -163.115997 0.000000 -0.000000 0.000000 -116.071999 6.174530 178.028000 -0.000000 0.000000 -0.000000 18.835400 1.500500 4.828760 -173.472000 35.521702 -149.195999 -0.000000 0.000000 0.000000 83.530998 -78.370102 145.235001 -0.000000 0.000000 0.000000 0.000000 0.000000 0.000000 
5.318600 23.336399 14.814175 -2.312890 6.381910 3.499900 3.900080 17.303900 -6.046770 0.000000 -0.000000 0.000000 -8.452480 25.649900 3.762930 0.000000 -0.000000 0.000000 7.914430 17.894899 7.451920 -0.208227 -35.445999 7.963830 0.000000 0.000000 0.000000 0.134825 2.663510 0.106552 -0.000000 0.000000 0.000000 0.884431 6.110890 -2.824740 0.817313 0.859725 -1.426300 -0.000000 0.000000 -0.000000 0.000000 0.000000 -0.000000 0.000000 -0.000000 0.000000 -15.946300 -2.282520 -4.062300 114.598000 52.532600 -164.186996 0.000000 -0.000000 0.000000 -117.292000 10.522000 177.983002 -0.000000 0.000000 -0.000000 18.792101 1.488630 4.799660 -173.584000 35.002499 -149.203003 -0.000000 0.000000 0.000000 83.184601 -78.727402 143.679001 -0.000000 0.000000 0.000000 0.000000 0.000000 0.000000 
5.250800 22.555325 17.533951 -3.124460 3.443520 2.923830 5.470440 16.396000 -8.781100 0.000000 -0.000000 0.000000 -14.887200 38.910702 8.462280 0.000000 -0.000000 0.000000 18.528601 26.182800 9.693410 1.057420 -38.035702 12.811900 0.000000 0.000000 0.000000 6.724920 14.806100 -1.600070 -0.000000 0.000000 0.000000 -7.703260 20.482100 -6.908750 1.562980 1.191470 -0.870773 -0.000000 0.000000 -0.000000 0.000000 0.000000 -0.000000 0.000000 -0.000000 0.000000 -16.734200 -2.424480 -4.528830 117.689003 53.005001 -167.716003 0.000000 -0.000000 0.000000 -116.746002 9.296350 178.050995 -0.000000 0.000000 -0.000000 20.069201 1.614730 4.619800 -173.220001 36.753700 -150.266006 -0.000000 0.000000 0.000000 88.156700 -77.213402 147.410004 -0.000000 0.000000 0.000000 0.000000 0.000000 0.000000 
5.128825 22.085476 19.914551 -4.785410 1.102620 1.686740 6.939470 11.021600 -11.514500 0.000000 -0.000000 0.000000 -25.712500 52.667198 17.604500 0.000000 -0.000000 0.000000 23.472300 27.647400 10.495700 2.527330 -38.632500 17.309900 0.000000 0.000000 0.000000 17.507700 24.707199 -6.455140 -0.000000 0.000000 0.000000 -15.985000 25.610201 -7.173350 2.259970 1.738460 -0.592044 -0.000000 0.000000 -0.000000 0.000000 0.000000 -0.000000 0.000000 -0.000000 0.000000 -16.899200 -2.245630 -2.615980 120.346001 54.859200 -171.264999 0.000000 -0.000000 0.000000 -113.754997 -0.342061 178.830994 -0.000000 0.000000 -0.000000 22.469999 1.658100 7.084350 -169.942993 43.778099 -154.177994 -0.000000 0.000000 0.000000 69.830597 -81.774002 123.765999 -0.000000 0.000000 0.000000 0.000000 0.000000 0.000000 
5.110025 22.144775 21.932850 -5.382020 0.314485 0.784073 6.242900 -0.563989 -13.961900 0.000000 -0.000000 0.000000 -42.465000 62.981098 32.789200 0.000000 -0.000000 0.000000 24.651300 26.651699 11.078700 3.926320 -35.959202 20.396000 0.000000 0.000000 0.000000 23.115299 29.748600 -9.703310 -0.000000 0.000000 0.000000 -20.453600 22.014799 -8.449390 2.732610 1.873420 -0.345290 -0.000000 0.000000 -0.000000 0.000000 0.000000 -0.000000 0.000000 -0.000000 0.000000 -18.238199 -2.498070 -3.381300 129.832993 55.582001 176.893997 0.000000 -0.000000 0.000000 -109.525002 -31.595600 178.727997 -0.000000 0.000000 -0.000000 24.381100 1.778660 7.790940 -161.768997 55.593899 -162.692001 -0.000000 0.000000 0.000000 -8.416320 -78.717499 34.289501 -0.000000 0.000000 0.000000 0.000000 0.000000 0.000000 
